<svg width="1000" height="800" viewBox="0 0 1000 800" fill="none" xmlns="http://www.w3.org/2000/svg">
<path d="M658.12 449.74C676.84 443.44 694.02 440.11 709.72 439.02C688.19 437.46 663.26 440.15 634.78 449.74C569.99 471.56 502.32 520.17 440.58 526.02C508.33 533.03 585.06 474.35 658.12 449.74Z" fill="#E02B2B"/>
<path d="M700.06 456.68C718.78 450.38 735.96 447.05 751.66 445.96C730.13 444.4 705.2 447.09 676.72 456.68C611.93 478.5 544.26 527.11 482.52 532.96C550.27 539.96 627 481.28 700.06 456.68Z" fill="#E02B2B"/>
<path d="M397.02 473.78C360.56 458.43 334.97 422.37 334.97 380.33C334.97 361.12 340.32 343.15 349.6 327.84C329.65 346.35 317.16 372.79 317.16 402.15C317.16 402.31 317.16 402.48 317.16 402.64C317.3 431.88 335.98 458.01 363.62 467.57C374.53 471.33 385.67 473.29 397.02 473.78Z" fill="#E02B2B"/>
<path d="M452.07 460.57C408.71 442.31 378.26 399.42 378.26 349.41C378.26 326.55 384.62 305.18 395.67 286.97C371.94 308.99 357.09 340.44 357.09 375.36C357.09 375.55 357.09 375.75 357.09 375.94C357.25 410.72 379.48 441.8 412.35 453.18C425.32 457.66 438.58 459.99 452.07 460.57Z" fill="#E02B2B"/>
<path d="M356.98 556.14L323.91 519.92C322.9 518.81 322.98 517.1 324.08 516.09L494.78 360.23C495.89 359.22 497.6 359.3 498.61 360.4L531.68 396.62C532.69 397.73 532.61 399.44 531.51 400.45L360.81 556.31C359.71 557.32 357.99 557.25 356.98 556.14Z" fill="black"/>
<path d="M316.7 525.58L348.88 560.83C349.71 561.74 349.47 563.2 348.38 563.79L259.52 612.14C257.77 613.09 255.91 611.05 257.03 609.4L313.71 525.81C314.4 524.78 315.87 524.67 316.7 525.58Z" fill="black"/>
<path d="M687.13 258.38L684.51 315.96L587.45 404.58L567.89 401.81L669.17 309.33L671.9 267.12L687.13 258.38Z" fill="black"/>
<g filter="url(#filter0_d_0_1)">
<path d="M640.21 482.15C610.26 540.87 549.23 581.09 478.79 581.09C378.77 581.09 297.69 500.01 297.69 399.99C297.69 299.97 378.77 218.89 478.79 218.89C573.19 218.89 650.71 291.13 659.12 383.34C670.31 382.27 680.77 382.32 690.51 383.25C681.98 273.78 590.45 187.61 478.79 187.61C361.5 187.61 266.42 282.69 266.42 399.98C266.42 517.27 361.5 612.35 478.79 612.35C573.92 612.35 654.43 549.79 681.46 463.57C667.76 469.11 653.99 475.51 640.21 482.15Z" fill="#0E2F3A"/>
</g>
<path d="M546.14 395.22L703.62 251.44C709.52 246.05 709.94 236.89 704.55 230.99L680.79 204.97C675.4 199.07 666.24 198.65 660.34 204.04L502.86 347.82L546.14 395.22Z" fill="black"/>
<defs>
<filter id="filter0_d_0_1" x="262.42" y="187.61" width="432.09" height="432.74" filterUnits="userSpaceOnUse" color-interpolation-filters="sRGB">
<feFlood flood-opacity="0" result="BackgroundImageFix"/>
<feColorMatrix in="SourceAlpha" type="matrix" values="0 0 0 0 0 0 0 0 0 0 0 0 0 0 0 0 0 0 127 0" result="hardAlpha"/>
<feOffset dy="4"/>
<feGaussianBlur stdDeviation="2"/>
<feComposite in2="hardAlpha" operator="out"/>
<feColorMatrix type="matrix" values="0 0 0 0 0 0 0 0 0 0 0 0 0 0 0 0 0 0 0.25 0"/>
<feBlend mode="normal" in2="BackgroundImageFix" result="effect1_dropShadow_0_1"/>
<feBlend mode="normal" in="SourceGraphic" in2="effect1_dropShadow_0_1" result="shape"/>
</filter>
</defs>
</svg>
